<?xml version="1.0" encoding="utf-8"?>
<svg version="1.1" id="mantichor_logo" xmlns="http://www.w3.org/2000/svg" xmlns:xlink="http://www.w3.org/1999/xlink" x="0px" y="0px"
	 viewBox="0 0 124.2 122.1" xml:space="preserve">
<style type="text/css">
	.st0{fill-rule:evenodd;clip-rule:evenodd;fill:#75B900;}
</style>
<path class="st0" d="M96.2,121.1V38.8H76.6L96.2,5.1h27v116H96.2z M31.2,58.1v63h-27V51.5C12.2,56.2,21.6,58.6,31.2,58.1z
	 M62.9,78.6c1.4-7.8,0.7-15.9-2.3-23.6c-2.3-5.8-5.7-10.9-10-15c-2.2,1.6-4.6,3-7.2,4.1C27.5,50.3,9.4,42.5,3.2,26.5
	c-0.6-1.6-1.1-3.3-1.5-4.9c-0.8-3.8-0.9-7.7-0.3-11.4c0,0,0,0,0-0.1C1.6,9,1.9,7.8,2.2,6.6C2.8,4.7,4.4,1,4.4,1
	c35.4,0.1,64.1,21.5,64.1,54.3C68.5,63.9,66.5,71.7,62.9,78.6z"/>
</svg>
